<mxfile host="Electron" agent="Mozilla/5.0 (Macintosh; Intel Mac OS X 10_15_7) AppleWebKit/537.36 (KHTML, like Gecko) draw.io/25.0.2 Chrome/128.0.6613.186 Electron/32.2.5 Safari/537.36" version="25.0.2">
  <diagram name="Page-1" id="KvJCfQqjTLcTcHkRCFoN">
    <mxGraphModel dx="2131" dy="2024" grid="1" gridSize="10" guides="1" tooltips="1" connect="1" arrows="1" fold="1" page="1" pageScale="1" pageWidth="850" pageHeight="1100" math="0" shadow="0">
      <root>
        <mxCell id="0" />
        <mxCell id="1" parent="0" />
        <mxCell id="DayLid3WByzx3j8m-CAS-71" value="" style="rounded=0;whiteSpace=wrap;html=1;" vertex="1" parent="1">
          <mxGeometry x="-561" y="-280" width="1471" height="990" as="geometry" />
        </mxCell>
        <mxCell id="DayLid3WByzx3j8m-CAS-2" value="&lt;font&gt;Amazon Cognito&lt;/font&gt;" style="sketch=0;points=[[0,0,0],[0.25,0,0],[0.5,0,0],[0.75,0,0],[1,0,0],[0,1,0],[0.25,1,0],[0.5,1,0],[0.75,1,0],[1,1,0],[0,0.25,0],[0,0.5,0],[0,0.75,0],[1,0.25,0],[1,0.5,0],[1,0.75,0]];outlineConnect=0;fontColor=#232F3E;fillColor=#DD344C;strokeColor=#ffffff;dashed=0;verticalLabelPosition=top;verticalAlign=bottom;align=center;html=1;fontSize=12;fontStyle=0;aspect=fixed;shape=mxgraph.aws4.resourceIcon;resIcon=mxgraph.aws4.cognito;fontFamily=Amazon Ember;labelPosition=center;" vertex="1" parent="1">
          <mxGeometry x="-332.25" y="-220" width="78" height="78" as="geometry" />
        </mxCell>
        <mxCell id="DayLid3WByzx3j8m-CAS-4" value="Amazon Simple&lt;br&gt;Storage Service (S3)&lt;br&gt;- Static Website&lt;br&gt;Hosting" style="sketch=0;points=[[0,0,0],[0.25,0,0],[0.5,0,0],[0.75,0,0],[1,0,0],[0,1,0],[0.25,1,0],[0.5,1,0],[0.75,1,0],[1,1,0],[0,0.25,0],[0,0.5,0],[0,0.75,0],[1,0.25,0],[1,0.5,0],[1,0.75,0]];outlineConnect=0;fontColor=#232F3E;fillColor=#7AA116;strokeColor=#ffffff;dashed=0;verticalLabelPosition=bottom;verticalAlign=top;align=center;html=1;fontSize=12;fontStyle=0;aspect=fixed;shape=mxgraph.aws4.resourceIcon;resIcon=mxgraph.aws4.s3;fontFamily=Amazon Ember;" vertex="1" parent="1">
          <mxGeometry x="-20" y="-220" width="78" height="78" as="geometry" />
        </mxCell>
        <mxCell id="DayLid3WByzx3j8m-CAS-5" value="Amazon CloudFront" style="sketch=0;points=[[0,0,0],[0.25,0,0],[0.5,0,0],[0.75,0,0],[1,0,0],[0,1,0],[0.25,1,0],[0.5,1,0],[0.75,1,0],[1,1,0],[0,0.25,0],[0,0.5,0],[0,0.75,0],[1,0.25,0],[1,0.5,0],[1,0.75,0]];outlineConnect=0;fontColor=#232F3E;fillColor=#8C4FFF;strokeColor=#ffffff;dashed=0;verticalLabelPosition=top;verticalAlign=bottom;align=center;html=1;fontSize=12;fontStyle=0;aspect=fixed;shape=mxgraph.aws4.resourceIcon;resIcon=mxgraph.aws4.cloudfront;fontFamily=Amazon Ember;labelPosition=center;" vertex="1" parent="1">
          <mxGeometry x="-190" y="-220" width="78" height="78" as="geometry" />
        </mxCell>
        <mxCell id="DayLid3WByzx3j8m-CAS-54" value="" style="edgeStyle=orthogonalEdgeStyle;rounded=0;orthogonalLoop=1;jettySize=auto;html=1;fontFamily=Amazon Ember;" edge="1" parent="1" source="DayLid3WByzx3j8m-CAS-6" target="DayLid3WByzx3j8m-CAS-8">
          <mxGeometry relative="1" as="geometry" />
        </mxCell>
        <mxCell id="DayLid3WByzx3j8m-CAS-6" value="AWS Lambda&lt;br&gt;- Upload Exectuion&lt;br&gt;Function" style="sketch=0;points=[[0,0,0],[0.25,0,0],[0.5,0,0],[0.75,0,0],[1,0,0],[0,1,0],[0.25,1,0],[0.5,1,0],[0.75,1,0],[1,1,0],[0,0.25,0],[0,0.5,0],[0,0.75,0],[1,0.25,0],[1,0.5,0],[1,0.75,0]];outlineConnect=0;fontColor=#232F3E;fillColor=#ED7100;strokeColor=#ffffff;dashed=0;verticalLabelPosition=bottom;verticalAlign=top;align=center;html=1;fontSize=12;fontStyle=0;aspect=fixed;shape=mxgraph.aws4.resourceIcon;resIcon=mxgraph.aws4.lambda;fontFamily=Amazon Ember;" vertex="1" parent="1">
          <mxGeometry x="-190" y="280" width="78" height="78" as="geometry" />
        </mxCell>
        <mxCell id="DayLid3WByzx3j8m-CAS-7" value="Amazon Polly" style="sketch=0;points=[[0,0,0],[0.25,0,0],[0.5,0,0],[0.75,0,0],[1,0,0],[0,1,0],[0.25,1,0],[0.5,1,0],[0.75,1,0],[1,1,0],[0,0.25,0],[0,0.5,0],[0,0.75,0],[1,0.25,0],[1,0.5,0],[1,0.75,0]];outlineConnect=0;fontColor=#232F3E;fillColor=#01A88D;strokeColor=#ffffff;dashed=0;verticalLabelPosition=bottom;verticalAlign=top;align=center;html=1;fontSize=12;fontStyle=0;aspect=fixed;shape=mxgraph.aws4.resourceIcon;resIcon=mxgraph.aws4.polly;fontFamily=Amazon Ember;" vertex="1" parent="1">
          <mxGeometry x="212" y="110" width="78" height="78" as="geometry" />
        </mxCell>
        <mxCell id="DayLid3WByzx3j8m-CAS-46" value="has" style="edgeStyle=orthogonalEdgeStyle;rounded=0;orthogonalLoop=1;jettySize=auto;html=1;fontFamily=Amazon Ember;" edge="1" parent="1" source="DayLid3WByzx3j8m-CAS-8" target="DayLid3WByzx3j8m-CAS-32">
          <mxGeometry relative="1" as="geometry" />
        </mxCell>
        <mxCell id="DayLid3WByzx3j8m-CAS-8" value="Amazon DynamoDB" style="sketch=0;points=[[0,0,0],[0.25,0,0],[0.5,0,0],[0.75,0,0],[1,0,0],[0,1,0],[0.25,1,0],[0.5,1,0],[0.75,1,0],[1,1,0],[0,0.25,0],[0,0.5,0],[0,0.75,0],[1,0.25,0],[1,0.5,0],[1,0.75,0]];outlineConnect=0;fontColor=#232F3E;fillColor=#C925D1;strokeColor=#ffffff;dashed=0;verticalLabelPosition=bottom;verticalAlign=top;align=center;html=1;fontSize=12;fontStyle=0;aspect=fixed;shape=mxgraph.aws4.resourceIcon;resIcon=mxgraph.aws4.dynamodb;fontFamily=Amazon Ember;" vertex="1" parent="1">
          <mxGeometry x="-20" y="280" width="78" height="78" as="geometry" />
        </mxCell>
        <mxCell id="DayLid3WByzx3j8m-CAS-38" value="gets build&lt;br&gt;&lt;div&gt;input from&lt;/div&gt;" style="edgeStyle=orthogonalEdgeStyle;rounded=0;orthogonalLoop=1;jettySize=auto;html=1;fontFamily=Amazon Ember;" edge="1" parent="1" source="DayLid3WByzx3j8m-CAS-9" target="DayLid3WByzx3j8m-CAS-35">
          <mxGeometry relative="1" as="geometry" />
        </mxCell>
        <mxCell id="DayLid3WByzx3j8m-CAS-9" value="AWS CodeBuild" style="sketch=0;points=[[0,0,0],[0.25,0,0],[0.5,0,0],[0.75,0,0],[1,0,0],[0,1,0],[0.25,1,0],[0.5,1,0],[0.75,1,0],[1,1,0],[0,0.25,0],[0,0.5,0],[0,0.75,0],[1,0.25,0],[1,0.5,0],[1,0.75,0]];outlineConnect=0;fontColor=#232F3E;fillColor=#C925D1;strokeColor=#ffffff;dashed=0;verticalLabelPosition=top;verticalAlign=bottom;align=center;html=1;fontSize=12;fontStyle=0;aspect=fixed;shape=mxgraph.aws4.resourceIcon;resIcon=mxgraph.aws4.codebuild;fontFamily=Amazon Ember;labelPosition=center;" vertex="1" parent="1">
          <mxGeometry x="-20" y="460" width="78" height="78" as="geometry" />
        </mxCell>
        <mxCell id="DayLid3WByzx3j8m-CAS-10" value="Amazon Elastic&lt;br&gt;Container Registry (ECR)" style="sketch=0;points=[[0,0,0],[0.25,0,0],[0.5,0,0],[0.75,0,0],[1,0,0],[0,1,0],[0.25,1,0],[0.5,1,0],[0.75,1,0],[1,1,0],[0,0.25,0],[0,0.5,0],[0,0.75,0],[1,0.25,0],[1,0.5,0],[1,0.75,0]];outlineConnect=0;fontColor=#232F3E;fillColor=#ED7100;strokeColor=#ffffff;dashed=0;verticalLabelPosition=bottom;verticalAlign=top;align=center;html=1;fontSize=12;fontStyle=0;aspect=fixed;shape=mxgraph.aws4.resourceIcon;resIcon=mxgraph.aws4.ecr;fontFamily=Amazon Ember;" vertex="1" parent="1">
          <mxGeometry x="212" y="460" width="78" height="78" as="geometry" />
        </mxCell>
        <mxCell id="DayLid3WByzx3j8m-CAS-11" value="Amazon Simple&lt;br&gt;Notification Service (SNS)" style="sketch=0;points=[[0,0,0],[0.25,0,0],[0.5,0,0],[0.75,0,0],[1,0,0],[0,1,0],[0.25,1,0],[0.5,1,0],[0.75,1,0],[1,1,0],[0,0.25,0],[0,0.5,0],[0,0.75,0],[1,0.25,0],[1,0.5,0],[1,0.75,0]];outlineConnect=0;fontColor=#232F3E;fillColor=#E7157B;strokeColor=#ffffff;dashed=0;verticalLabelPosition=bottom;verticalAlign=top;align=center;html=1;fontSize=12;fontStyle=0;aspect=fixed;shape=mxgraph.aws4.resourceIcon;resIcon=mxgraph.aws4.sns;fontFamily=Amazon Ember;" vertex="1" parent="1">
          <mxGeometry x="458" y="280" width="78" height="78" as="geometry" />
        </mxCell>
        <mxCell id="DayLid3WByzx3j8m-CAS-12" value="Amazon Bedrock" style="sketch=0;points=[[0,0,0],[0.25,0,0],[0.5,0,0],[0.75,0,0],[1,0,0],[0,1,0],[0.25,1,0],[0.5,1,0],[0.75,1,0],[1,1,0],[0,0.25,0],[0,0.5,0],[0,0.75,0],[1,0.25,0],[1,0.5,0],[1,0.75,0]];outlineConnect=0;fontColor=#232F3E;fillColor=#01A88D;strokeColor=#ffffff;dashed=0;verticalLabelPosition=bottom;verticalAlign=top;align=center;html=1;fontSize=12;fontStyle=0;aspect=fixed;shape=mxgraph.aws4.resourceIcon;resIcon=mxgraph.aws4.bedrock;fontFamily=Amazon Ember;" vertex="1" parent="1">
          <mxGeometry x="772" y="280" width="78" height="78" as="geometry" />
        </mxCell>
        <mxCell id="DayLid3WByzx3j8m-CAS-20" value="served&lt;br&gt;by" style="rounded=0;orthogonalLoop=1;jettySize=auto;html=1;fontFamily=Amazon Ember;" edge="1" parent="1" source="DayLid3WByzx3j8m-CAS-13" target="DayLid3WByzx3j8m-CAS-5">
          <mxGeometry relative="1" as="geometry" />
        </mxCell>
        <mxCell id="DayLid3WByzx3j8m-CAS-13" value="JavaScript&lt;br&gt;Website" style="outlineConnect=0;dashed=0;verticalLabelPosition=bottom;verticalAlign=top;align=center;html=1;shape=mxgraph.aws3.android;fillColor=#205E00;gradientColor=none;fontFamily=Amazon Ember;" vertex="1" parent="1">
          <mxGeometry x="-330" y="-20" width="73.5" height="84" as="geometry" />
        </mxCell>
        <mxCell id="DayLid3WByzx3j8m-CAS-16" style="edgeStyle=orthogonalEdgeStyle;rounded=0;orthogonalLoop=1;jettySize=auto;html=1;entryX=0;entryY=0.5;entryDx=0;entryDy=0;entryPerimeter=0;fontFamily=Amazon Ember;" edge="1" parent="1" source="DayLid3WByzx3j8m-CAS-5" target="DayLid3WByzx3j8m-CAS-4">
          <mxGeometry relative="1" as="geometry" />
        </mxCell>
        <mxCell id="DayLid3WByzx3j8m-CAS-17" value="Origin&lt;br&gt;Access&lt;br&gt;Control" style="edgeLabel;html=1;align=center;verticalAlign=middle;resizable=0;points=[];fontFamily=Amazon Ember;" vertex="1" connectable="0" parent="DayLid3WByzx3j8m-CAS-16">
          <mxGeometry x="-0.1961" y="3" relative="1" as="geometry">
            <mxPoint x="11" y="3" as="offset" />
          </mxGeometry>
        </mxCell>
        <mxCell id="DayLid3WByzx3j8m-CAS-23" value="" style="group;fontFamily=Amazon Ember;" vertex="1" connectable="0" parent="1">
          <mxGeometry x="-530" y="-17" width="128" height="107" as="geometry" />
        </mxCell>
        <mxCell id="DayLid3WByzx3j8m-CAS-21" value="" style="group;fontFamily=Amazon Ember;" vertex="1" connectable="0" parent="DayLid3WByzx3j8m-CAS-23">
          <mxGeometry width="128" height="77" as="geometry" />
        </mxCell>
        <mxCell id="DayLid3WByzx3j8m-CAS-18" value="" style="verticalLabelPosition=bottom;sketch=0;aspect=fixed;html=1;verticalAlign=top;strokeColor=none;align=center;outlineConnect=0;shape=mxgraph.citrix.laptop_1;fontFamily=Amazon Ember;" vertex="1" parent="DayLid3WByzx3j8m-CAS-21">
          <mxGeometry x="37" width="91" height="77" as="geometry" />
        </mxCell>
        <mxCell id="DayLid3WByzx3j8m-CAS-19" value="" style="verticalLabelPosition=bottom;html=1;verticalAlign=top;align=center;strokeColor=none;fillColor=#00BEF2;shape=mxgraph.azure.user;fontFamily=Amazon Ember;" vertex="1" parent="DayLid3WByzx3j8m-CAS-21">
          <mxGeometry width="70" height="63" as="geometry" />
        </mxCell>
        <mxCell id="DayLid3WByzx3j8m-CAS-22" value="User" style="text;html=1;align=center;verticalAlign=middle;resizable=0;points=[];autosize=1;strokeColor=none;fillColor=none;fontFamily=Amazon Ember;" vertex="1" parent="DayLid3WByzx3j8m-CAS-23">
          <mxGeometry x="39" y="77" width="50" height="30" as="geometry" />
        </mxCell>
        <mxCell id="DayLid3WByzx3j8m-CAS-24" value="authenticates&lt;br&gt;via" style="edgeStyle=orthogonalEdgeStyle;rounded=0;orthogonalLoop=1;jettySize=auto;html=1;entryX=0.5;entryY=1;entryDx=0;entryDy=0;entryPerimeter=0;fontFamily=Amazon Ember;" edge="1" parent="1" source="DayLid3WByzx3j8m-CAS-13" target="DayLid3WByzx3j8m-CAS-2">
          <mxGeometry relative="1" as="geometry" />
        </mxCell>
        <mxCell id="DayLid3WByzx3j8m-CAS-25" value="opens" style="edgeStyle=orthogonalEdgeStyle;rounded=0;orthogonalLoop=1;jettySize=auto;html=1;entryX=0;entryY=0.5;entryDx=0;entryDy=0;entryPerimeter=0;fontFamily=Amazon Ember;" edge="1" parent="1" source="DayLid3WByzx3j8m-CAS-18" target="DayLid3WByzx3j8m-CAS-13">
          <mxGeometry relative="1" as="geometry" />
        </mxCell>
        <mxCell id="DayLid3WByzx3j8m-CAS-26" value="AWS Lambda&lt;br&gt;- Track Exectuion&lt;br&gt;Function" style="sketch=0;points=[[0,0,0],[0.25,0,0],[0.5,0,0],[0.75,0,0],[1,0,0],[0,1,0],[0.25,1,0],[0.5,1,0],[0.75,1,0],[1,1,0],[0,0.25,0],[0,0.5,0],[0,0.75,0],[1,0.25,0],[1,0.5,0],[1,0.75,0]];outlineConnect=0;fontColor=#232F3E;fillColor=#ED7100;strokeColor=#ffffff;dashed=0;verticalLabelPosition=bottom;verticalAlign=top;align=center;html=1;fontSize=12;fontStyle=0;aspect=fixed;shape=mxgraph.aws4.resourceIcon;resIcon=mxgraph.aws4.lambda;fontFamily=Amazon Ember;" vertex="1" parent="1">
          <mxGeometry x="-190" y="-17" width="78" height="78" as="geometry" />
        </mxCell>
        <mxCell id="DayLid3WByzx3j8m-CAS-39" value="uses" style="edgeStyle=orthogonalEdgeStyle;rounded=0;orthogonalLoop=1;jettySize=auto;html=1;fontFamily=Amazon Ember;" edge="1" parent="1" source="DayLid3WByzx3j8m-CAS-27" target="DayLid3WByzx3j8m-CAS-7">
          <mxGeometry relative="1" as="geometry" />
        </mxCell>
        <mxCell id="DayLid3WByzx3j8m-CAS-45" value="update job&lt;br&gt;status" style="edgeStyle=orthogonalEdgeStyle;rounded=0;orthogonalLoop=1;jettySize=auto;html=1;fontFamily=Amazon Ember;" edge="1" parent="1" source="DayLid3WByzx3j8m-CAS-27" target="DayLid3WByzx3j8m-CAS-8">
          <mxGeometry relative="1" as="geometry">
            <Array as="points">
              <mxPoint x="119" y="210" />
              <mxPoint y="210" />
            </Array>
          </mxGeometry>
        </mxCell>
        <mxCell id="DayLid3WByzx3j8m-CAS-27" value="AWS Lambda. -&lt;br&gt;Text to Voice Function" style="sketch=0;points=[[0,0,0],[0.25,0,0],[0.5,0,0],[0.75,0,0],[1,0,0],[0,1,0],[0.25,1,0],[0.5,1,0],[0.75,1,0],[1,1,0],[0,0.25,0],[0,0.5,0],[0,0.75,0],[1,0.25,0],[1,0.5,0],[1,0.75,0]];outlineConnect=0;fontColor=#232F3E;fillColor=#ED7100;strokeColor=#ffffff;dashed=0;verticalLabelPosition=middle;verticalAlign=middle;align=right;html=1;fontSize=12;fontStyle=0;aspect=fixed;shape=mxgraph.aws4.resourceIcon;resIcon=mxgraph.aws4.lambda;fontFamily=Amazon Ember;labelPosition=left;" vertex="1" parent="1">
          <mxGeometry x="80" y="110" width="78" height="78" as="geometry" />
        </mxCell>
        <mxCell id="DayLid3WByzx3j8m-CAS-28" value="Amazon Simple&lt;br&gt;Storage Service (S3)&lt;br&gt;- Document Data" style="sketch=0;points=[[0,0,0],[0.25,0,0],[0.5,0,0],[0.75,0,0],[1,0,0],[0,1,0],[0.25,1,0],[0.5,1,0],[0.75,1,0],[1,1,0],[0,0.25,0],[0,0.5,0],[0,0.75,0],[1,0.25,0],[1,0.5,0],[1,0.75,0]];outlineConnect=0;fontColor=#232F3E;fillColor=#7AA116;strokeColor=#ffffff;dashed=0;verticalLabelPosition=top;verticalAlign=bottom;align=center;html=1;fontSize=12;fontStyle=0;aspect=fixed;shape=mxgraph.aws4.resourceIcon;resIcon=mxgraph.aws4.s3;fontFamily=Amazon Ember;labelPosition=center;" vertex="1" parent="1">
          <mxGeometry x="290" y="-78" width="78" height="78" as="geometry" />
        </mxCell>
        <mxCell id="DayLid3WByzx3j8m-CAS-29" value="provides pre-signed download URLs&lt;br&gt;for .mp3 results" style="edgeStyle=orthogonalEdgeStyle;rounded=0;orthogonalLoop=1;jettySize=auto;html=1;fontFamily=Amazon Ember;" edge="1" parent="1" source="DayLid3WByzx3j8m-CAS-26" target="DayLid3WByzx3j8m-CAS-28">
          <mxGeometry relative="1" as="geometry">
            <Array as="points">
              <mxPoint x="-151" y="-50" />
            </Array>
          </mxGeometry>
        </mxCell>
        <mxCell id="DayLid3WByzx3j8m-CAS-30" style="rounded=0;orthogonalLoop=1;jettySize=auto;html=1;entryX=0;entryY=0.5;entryDx=0;entryDy=0;entryPerimeter=0;edgeStyle=orthogonalEdgeStyle;fontFamily=Amazon Ember;" edge="1" parent="1" source="DayLid3WByzx3j8m-CAS-13" target="DayLid3WByzx3j8m-CAS-6">
          <mxGeometry relative="1" as="geometry">
            <Array as="points">
              <mxPoint x="-223" y="50" />
              <mxPoint x="-223" y="319" />
            </Array>
          </mxGeometry>
        </mxCell>
        <mxCell id="DayLid3WByzx3j8m-CAS-31" style="edgeStyle=orthogonalEdgeStyle;rounded=0;orthogonalLoop=1;jettySize=auto;html=1;entryX=0;entryY=0.5;entryDx=0;entryDy=0;entryPerimeter=0;fontFamily=Amazon Ember;" edge="1" parent="1" source="DayLid3WByzx3j8m-CAS-13" target="DayLid3WByzx3j8m-CAS-26">
          <mxGeometry relative="1" as="geometry" />
        </mxCell>
        <mxCell id="DayLid3WByzx3j8m-CAS-32" value="DynamoDB Stream" style="sketch=0;outlineConnect=0;fontColor=#232F3E;gradientColor=none;fillColor=#C925D1;strokeColor=none;dashed=0;verticalLabelPosition=bottom;verticalAlign=top;align=center;html=1;fontSize=12;fontStyle=0;aspect=fixed;pointerEvents=1;shape=mxgraph.aws4.dynamodb_stream;fontFamily=Amazon Ember;" vertex="1" parent="1">
          <mxGeometry x="130" y="280" width="78" height="78" as="geometry" />
        </mxCell>
        <mxCell id="DayLid3WByzx3j8m-CAS-33" style="edgeStyle=orthogonalEdgeStyle;rounded=0;orthogonalLoop=1;jettySize=auto;html=1;entryX=0;entryY=0.5;entryDx=0;entryDy=0;entryPerimeter=0;fontFamily=Amazon Ember;" edge="1" parent="1" source="DayLid3WByzx3j8m-CAS-6" target="DayLid3WByzx3j8m-CAS-8">
          <mxGeometry relative="1" as="geometry" />
        </mxCell>
        <mxCell id="DayLid3WByzx3j8m-CAS-55" value="creates&lt;br&gt;job entry" style="edgeLabel;html=1;align=center;verticalAlign=middle;resizable=0;points=[];fontFamily=Amazon Ember;" vertex="1" connectable="0" parent="DayLid3WByzx3j8m-CAS-33">
          <mxGeometry x="-0.1739" y="1" relative="1" as="geometry">
            <mxPoint as="offset" />
          </mxGeometry>
        </mxCell>
        <mxCell id="DayLid3WByzx3j8m-CAS-36" value="deployed&lt;br&gt;with image&lt;br&gt;from" style="edgeStyle=orthogonalEdgeStyle;rounded=0;orthogonalLoop=1;jettySize=auto;html=1;fontFamily=Amazon Ember;" edge="1" parent="1" source="DayLid3WByzx3j8m-CAS-34" target="DayLid3WByzx3j8m-CAS-10">
          <mxGeometry x="0.4152" y="1" relative="1" as="geometry">
            <Array as="points">
              <mxPoint x="239" y="340" />
            </Array>
            <mxPoint as="offset" />
          </mxGeometry>
        </mxCell>
        <mxCell id="DayLid3WByzx3j8m-CAS-34" value="AWS Lambda&lt;br&gt;- Document Splitter&lt;br&gt;Function" style="sketch=0;points=[[0,0,0],[0.25,0,0],[0.5,0,0],[0.75,0,0],[1,0,0],[0,1,0],[0.25,1,0],[0.5,1,0],[0.75,1,0],[1,1,0],[0,0.25,0],[0,0.5,0],[0,0.75,0],[1,0.25,0],[1,0.5,0],[1,0.75,0]];outlineConnect=0;fontColor=#232F3E;fillColor=#ED7100;strokeColor=#ffffff;dashed=0;verticalLabelPosition=bottom;verticalAlign=top;align=center;html=1;fontSize=12;fontStyle=0;aspect=fixed;shape=mxgraph.aws4.resourceIcon;resIcon=mxgraph.aws4.lambda;fontFamily=Amazon Ember;" vertex="1" parent="1">
          <mxGeometry x="290" y="280" width="78" height="78" as="geometry" />
        </mxCell>
        <mxCell id="DayLid3WByzx3j8m-CAS-35" value="Amazon Simple&lt;br&gt;Storage Service (S3)&lt;br&gt;- CodeBuild Artifacts" style="sketch=0;points=[[0,0,0],[0.25,0,0],[0.5,0,0],[0.75,0,0],[1,0,0],[0,1,0],[0.25,1,0],[0.5,1,0],[0.75,1,0],[1,1,0],[0,0.25,0],[0,0.5,0],[0,0.75,0],[1,0.25,0],[1,0.5,0],[1,0.75,0]];outlineConnect=0;fontColor=#232F3E;fillColor=#7AA116;strokeColor=#ffffff;dashed=0;verticalLabelPosition=bottom;verticalAlign=top;align=center;html=1;fontSize=12;fontStyle=0;aspect=fixed;shape=mxgraph.aws4.resourceIcon;resIcon=mxgraph.aws4.s3;fontFamily=Amazon Ember;" vertex="1" parent="1">
          <mxGeometry x="-190" y="460" width="78" height="78" as="geometry" />
        </mxCell>
        <mxCell id="DayLid3WByzx3j8m-CAS-37" value="publishes image to" style="edgeStyle=orthogonalEdgeStyle;rounded=0;orthogonalLoop=1;jettySize=auto;html=1;entryX=0;entryY=0.5;entryDx=0;entryDy=0;entryPerimeter=0;fontFamily=Amazon Ember;" edge="1" parent="1" source="DayLid3WByzx3j8m-CAS-9" target="DayLid3WByzx3j8m-CAS-10">
          <mxGeometry relative="1" as="geometry" />
        </mxCell>
        <mxCell id="DayLid3WByzx3j8m-CAS-40" value="AWS Lambda&lt;br&gt;- Image To Text Function" style="sketch=0;points=[[0,0,0],[0.25,0,0],[0.5,0,0],[0.75,0,0],[1,0,0],[0,1,0],[0.25,1,0],[0.5,1,0],[0.75,1,0],[1,1,0],[0,0.25,0],[0,0.5,0],[0,0.75,0],[1,0.25,0],[1,0.5,0],[1,0.75,0]];outlineConnect=0;fontColor=#232F3E;fillColor=#ED7100;strokeColor=#ffffff;dashed=0;verticalLabelPosition=bottom;verticalAlign=top;align=center;html=1;fontSize=12;fontStyle=0;aspect=fixed;shape=mxgraph.aws4.resourceIcon;resIcon=mxgraph.aws4.lambda;fontFamily=Amazon Ember;" vertex="1" parent="1">
          <mxGeometry x="630" y="280" width="78" height="78" as="geometry" />
        </mxCell>
        <mxCell id="DayLid3WByzx3j8m-CAS-41" value="publishes&lt;br&gt;result" style="edgeStyle=orthogonalEdgeStyle;rounded=0;orthogonalLoop=1;jettySize=auto;html=1;entryX=0;entryY=0.5;entryDx=0;entryDy=0;entryPerimeter=0;fontFamily=Amazon Ember;" edge="1" parent="1" source="DayLid3WByzx3j8m-CAS-34" target="DayLid3WByzx3j8m-CAS-11">
          <mxGeometry relative="1" as="geometry" />
        </mxCell>
        <mxCell id="DayLid3WByzx3j8m-CAS-42" value="notifies" style="edgeStyle=orthogonalEdgeStyle;rounded=0;orthogonalLoop=1;jettySize=auto;html=1;entryX=0;entryY=0.5;entryDx=0;entryDy=0;entryPerimeter=0;fontFamily=Amazon Ember;" edge="1" parent="1" source="DayLid3WByzx3j8m-CAS-11" target="DayLid3WByzx3j8m-CAS-40">
          <mxGeometry relative="1" as="geometry" />
        </mxCell>
        <mxCell id="DayLid3WByzx3j8m-CAS-43" value="uses" style="edgeStyle=orthogonalEdgeStyle;rounded=0;orthogonalLoop=1;jettySize=auto;html=1;entryX=0;entryY=0.5;entryDx=0;entryDy=0;entryPerimeter=0;fontFamily=Amazon Ember;" edge="1" parent="1" source="DayLid3WByzx3j8m-CAS-40" target="DayLid3WByzx3j8m-CAS-12">
          <mxGeometry relative="1" as="geometry" />
        </mxCell>
        <mxCell id="DayLid3WByzx3j8m-CAS-44" value="updates job status" style="edgeStyle=orthogonalEdgeStyle;rounded=0;orthogonalLoop=1;jettySize=auto;html=1;fontFamily=Amazon Ember;" edge="1" parent="1" source="DayLid3WByzx3j8m-CAS-40">
          <mxGeometry x="-0.4857" relative="1" as="geometry">
            <mxPoint x="30" y="280" as="targetPoint" />
            <Array as="points">
              <mxPoint x="650" y="240" />
              <mxPoint x="30" y="240" />
            </Array>
            <mxPoint as="offset" />
          </mxGeometry>
        </mxCell>
        <mxCell id="DayLid3WByzx3j8m-CAS-47" value="triggers" style="edgeStyle=orthogonalEdgeStyle;rounded=0;orthogonalLoop=1;jettySize=auto;html=1;entryX=0;entryY=0.5;entryDx=0;entryDy=0;entryPerimeter=0;fontFamily=Amazon Ember;" edge="1" parent="1" source="DayLid3WByzx3j8m-CAS-32" target="DayLid3WByzx3j8m-CAS-34">
          <mxGeometry relative="1" as="geometry" />
        </mxCell>
        <mxCell id="DayLid3WByzx3j8m-CAS-48" value="gets images&lt;br&gt;&amp;amp;&lt;br&gt;uploads&lt;br&gt;extracted&lt;br&gt;text file" style="edgeStyle=orthogonalEdgeStyle;rounded=0;orthogonalLoop=1;jettySize=auto;html=1;entryX=1;entryY=0.5;entryDx=0;entryDy=0;entryPerimeter=0;fontFamily=Amazon Ember;" edge="1" parent="1" source="DayLid3WByzx3j8m-CAS-40" target="DayLid3WByzx3j8m-CAS-28">
          <mxGeometry x="-0.4855" relative="1" as="geometry">
            <Array as="points">
              <mxPoint x="670" y="-40" />
            </Array>
            <mxPoint as="offset" />
          </mxGeometry>
        </mxCell>
        <mxCell id="DayLid3WByzx3j8m-CAS-49" value="gets uploaded PDF,&lt;br&gt;puts converted images" style="edgeStyle=orthogonalEdgeStyle;rounded=0;orthogonalLoop=1;jettySize=auto;html=1;entryX=0.5;entryY=1;entryDx=0;entryDy=0;entryPerimeter=0;fontFamily=Amazon Ember;" edge="1" parent="1" source="DayLid3WByzx3j8m-CAS-34" target="DayLid3WByzx3j8m-CAS-28">
          <mxGeometry x="-0.5714" y="-1" relative="1" as="geometry">
            <mxPoint as="offset" />
          </mxGeometry>
        </mxCell>
        <mxCell id="DayLid3WByzx3j8m-CAS-50" value="gets extracted text&lt;br&gt;&amp;amp;&lt;br&gt;uploads .mp3&lt;br&gt;result" style="edgeStyle=orthogonalEdgeStyle;rounded=0;orthogonalLoop=1;jettySize=auto;html=1;entryX=0.25;entryY=1;entryDx=0;entryDy=0;entryPerimeter=0;fontFamily=Amazon Ember;" edge="1" parent="1" source="DayLid3WByzx3j8m-CAS-27" target="DayLid3WByzx3j8m-CAS-28">
          <mxGeometry relative="1" as="geometry">
            <Array as="points">
              <mxPoint x="140" y="70" />
              <mxPoint x="310" y="70" />
            </Array>
          </mxGeometry>
        </mxCell>
        <mxCell id="DayLid3WByzx3j8m-CAS-52" value="checks job&lt;br&gt;status,&lt;br&gt;lists jobs" style="edgeStyle=orthogonalEdgeStyle;rounded=0;orthogonalLoop=1;jettySize=auto;html=1;jumpStyle=arc;fontFamily=Amazon Ember;" edge="1" parent="1" source="DayLid3WByzx3j8m-CAS-26" target="DayLid3WByzx3j8m-CAS-8">
          <mxGeometry x="0.0556" relative="1" as="geometry">
            <mxPoint x="-10" y="290" as="targetPoint" />
            <Array as="points">
              <mxPoint x="-90" y="22" />
              <mxPoint x="-90" y="290" />
            </Array>
            <mxPoint as="offset" />
          </mxGeometry>
        </mxCell>
        <mxCell id="DayLid3WByzx3j8m-CAS-53" value="uploads PDF" style="edgeStyle=orthogonalEdgeStyle;rounded=0;orthogonalLoop=1;jettySize=auto;html=1;fontFamily=Amazon Ember;jumpStyle=arc;jumpSize=12;" edge="1" parent="1" source="DayLid3WByzx3j8m-CAS-6" target="DayLid3WByzx3j8m-CAS-28">
          <mxGeometry x="-0.8336" relative="1" as="geometry">
            <mxPoint x="220" as="targetPoint" />
            <Array as="points">
              <mxPoint x="-151" y="150" />
              <mxPoint x="-60" y="150" />
              <mxPoint x="-60" y="-20" />
            </Array>
            <mxPoint as="offset" />
          </mxGeometry>
        </mxCell>
        <mxCell id="DayLid3WByzx3j8m-CAS-56" value="updates job status" style="edgeStyle=orthogonalEdgeStyle;rounded=0;orthogonalLoop=1;jettySize=auto;html=1;entryX=1;entryY=0;entryDx=0;entryDy=0;entryPerimeter=0;fontFamily=Amazon Ember;" edge="1" parent="1" source="DayLid3WByzx3j8m-CAS-34" target="DayLid3WByzx3j8m-CAS-8">
          <mxGeometry relative="1" as="geometry">
            <Array as="points">
              <mxPoint x="310" y="260" />
              <mxPoint x="58" y="260" />
            </Array>
          </mxGeometry>
        </mxCell>
        <mxCell id="DayLid3WByzx3j8m-CAS-58" value="1" style="ellipse;whiteSpace=wrap;html=1;aspect=fixed;fontFamily=Amazon Ember;fontStyle=1" vertex="1" parent="1">
          <mxGeometry x="-240" y="484" width="30" height="30" as="geometry" />
        </mxCell>
        <mxCell id="DayLid3WByzx3j8m-CAS-59" value="AWS Lambda&lt;br&gt;- Trigger Build Function" style="sketch=0;points=[[0,0,0],[0.25,0,0],[0.5,0,0],[0.75,0,0],[1,0,0],[0,1,0],[0.25,1,0],[0.5,1,0],[0.75,1,0],[1,1,0],[0,0.25,0],[0,0.5,0],[0,0.75,0],[1,0.25,0],[1,0.5,0],[1,0.75,0]];outlineConnect=0;fontColor=#232F3E;fillColor=#ED7100;strokeColor=#ffffff;dashed=0;verticalLabelPosition=middle;verticalAlign=middle;align=right;html=1;fontSize=12;fontStyle=0;aspect=fixed;shape=mxgraph.aws4.resourceIcon;resIcon=mxgraph.aws4.lambda;fontFamily=Amazon Ember;labelPosition=left;" vertex="1" parent="1">
          <mxGeometry x="-20" y="610" width="78" height="78" as="geometry" />
        </mxCell>
        <mxCell id="DayLid3WByzx3j8m-CAS-60" value="triggers" style="edgeStyle=orthogonalEdgeStyle;rounded=0;orthogonalLoop=1;jettySize=auto;html=1;entryX=0.5;entryY=1;entryDx=0;entryDy=0;entryPerimeter=0;fontFamily=Amazon Ember;" edge="1" parent="1" source="DayLid3WByzx3j8m-CAS-59" target="DayLid3WByzx3j8m-CAS-9">
          <mxGeometry relative="1" as="geometry" />
        </mxCell>
        <mxCell id="DayLid3WByzx3j8m-CAS-61" value="2" style="ellipse;whiteSpace=wrap;html=1;aspect=fixed;fontFamily=Amazon Ember;fontStyle=1" vertex="1" parent="1">
          <mxGeometry x="70" y="634" width="30" height="30" as="geometry" />
        </mxCell>
        <mxCell id="DayLid3WByzx3j8m-CAS-62" value="3" style="ellipse;whiteSpace=wrap;html=1;aspect=fixed;fontFamily=Amazon Ember;fontStyle=1" vertex="1" parent="1">
          <mxGeometry x="178" y="430" width="30" height="30" as="geometry" />
        </mxCell>
        <mxCell id="DayLid3WByzx3j8m-CAS-63" value="4" style="ellipse;whiteSpace=wrap;html=1;aspect=fixed;fontFamily=Amazon Ember;fontStyle=1" vertex="1" parent="1">
          <mxGeometry x="-370" y="50" width="30" height="30" as="geometry" />
        </mxCell>
        <mxCell id="DayLid3WByzx3j8m-CAS-64" value="5" style="ellipse;whiteSpace=wrap;html=1;aspect=fixed;fontFamily=Amazon Ember;fontStyle=1" vertex="1" parent="1">
          <mxGeometry x="-380" y="-160" width="30" height="30" as="geometry" />
        </mxCell>
        <mxCell id="DayLid3WByzx3j8m-CAS-65" value="6" style="ellipse;whiteSpace=wrap;html=1;aspect=fixed;fontFamily=Amazon Ember;fontStyle=1" vertex="1" parent="1">
          <mxGeometry x="-210" y="240" width="30" height="30" as="geometry" />
        </mxCell>
        <mxCell id="DayLid3WByzx3j8m-CAS-66" value="7" style="ellipse;whiteSpace=wrap;html=1;aspect=fixed;fontFamily=Amazon Ember;fontStyle=1" vertex="1" parent="1">
          <mxGeometry x="240" y="270" width="30" height="30" as="geometry" />
        </mxCell>
        <mxCell id="DayLid3WByzx3j8m-CAS-67" value="8" style="ellipse;whiteSpace=wrap;html=1;aspect=fixed;fontFamily=Amazon Ember;fontStyle=1" vertex="1" parent="1">
          <mxGeometry x="590" y="270" width="30" height="30" as="geometry" />
        </mxCell>
        <mxCell id="DayLid3WByzx3j8m-CAS-68" value="9" style="ellipse;whiteSpace=wrap;html=1;aspect=fixed;fontFamily=Amazon Ember;fontStyle=1" vertex="1" parent="1">
          <mxGeometry x="70" y="70" width="30" height="30" as="geometry" />
        </mxCell>
        <mxCell id="DayLid3WByzx3j8m-CAS-69" value="10" style="ellipse;whiteSpace=wrap;html=1;aspect=fixed;fontFamily=Amazon Ember;fontStyle=1" vertex="1" parent="1">
          <mxGeometry x="-190" y="-60" width="30" height="30" as="geometry" />
        </mxCell>
        <mxCell id="DayLid3WByzx3j8m-CAS-70" value="S3 event triggers" style="edgeStyle=orthogonalEdgeStyle;rounded=0;orthogonalLoop=1;jettySize=auto;html=1;entryX=0.5;entryY=0;entryDx=0;entryDy=0;entryPerimeter=0;fontFamily=Amazon Ember;" edge="1" parent="1" source="DayLid3WByzx3j8m-CAS-28" target="DayLid3WByzx3j8m-CAS-27">
          <mxGeometry relative="1" as="geometry">
            <Array as="points">
              <mxPoint x="119" />
            </Array>
          </mxGeometry>
        </mxCell>
      </root>
    </mxGraphModel>
  </diagram>
</mxfile>
